<svg xmlns="http://www.w3.org/2000/svg" id="Capa_1" enable-background="new 0 0 512 512" height="400" viewBox="-50 25 512 512" width="400"><g><g>
<path d="m451.979 7.5h-35.452c-21.796 0-42.287 8.488-57.7 " fill="#f9ed80"/>
<path d="m354.278 35.948-48.296 48.296 28.634 28.633 48.749-48.75c-8.67-10.386-18.422-19.839-29.087-28.179z" fill="#f9d888"/>
<path d="m237.355 25.651c-88.453 0-160.158 71.705-160.158 160.158v9.967l160.158 42.227 160.158-42.227v-9.967c0-88.453-71.705-160.158-160.158-160.158z" fill="#ffb3dd"/>
<path d="m84.442 347.285-7.248-67.057 160.161-42.225 160.161 42.225-7.248 67.057-152.913 45.255z" fill="#9ae0eb"/>
<path d="m192.478 32.033c-66.607 19.406-115.281 80.903-115.281 153.776v9.967l31.753 8.372c8.923-66.168 39.067-125.785 83.528-172.115z" fill="#ff9dd3"/>
<!-- <path d="m397.513 195.776h-320.316c-17.384 0-31.476 14.093-31.476 31.476v21.5c0 17.384 14.092 31.477 31.476 31.477h320.317c17.384 0 31.476-14.093 31.476-31.477v-21.5c0-17.383-14.093-31.476-31.477-31.476z" fill="#f9ed80"/> -->
<path d="m107.384 272.268-30.19 7.959 7.248 67.057 44.171 13.072c-11.232-27.637-18.522-57.222-21.229-88.088z" fill="#64d1e1"/>
<path d="m390.268 347.285-9.961 92.213c-3.999 36.981-35.209 65.002-72.402 65.002h-141.1c-37.193 0-68.403-28.021-72.402-65.002l-9.961-92.213c129.741-63.352 132.029 14.476 305.826 0z" fill="#ffb3dd"/>
<path d="m118.881 332.622c-10.463 3.702-21.849 8.515-34.439 14.663l9.961 92.213c3.999 36.98 35.209 65.002 72.402 65.002h81.042c-61.455-40.232-107.796-100.808-128.966-171.878z" fill="#ff9dd3"/><circle cx="169.705" cy="422.91" fill="#6a647f" r="41.06"/>
<circle cx="305.005" cy="422.91" fill="#6a647f" r="41.06"/><circle cx="237.355" cy="422.91" fill="#77718c" r="41.06"/>
<path d="m143.34 391.439c-8.981 7.532-14.696 18.832-14.696 31.471 0 22.677 18.383 41.061 41.06 41.061 8.055 0 15.562-2.329 21.902-6.336-18.879-19.832-35.145-42.069-48.266-66.196z" fill="#5c586f"/>
<path d="m106.183 245.292c0-16.853 1.386-33.387 4.019-49.515h-33.005c-17.384 0-31.476 14.092-31.476 31.476v21.5c0 17.384 14.092 31.477 31.476 31.477h30.99c-1.309-11.473-2.004-23.125-2.004-34.938z" fill="#f9d888"/></g><g><path d="m166.127 132.204v-15.128c0-4.143-3.358-7.5-7.5-7.5s-7.5 3.357-7.5 7.5v15.128c0 4.142 3.358 7.5 7.5 7.5s7.5-3.358 7.5-7.5z"/><path d="m323.582 132.204v-15.128c0-4.143-3.358-7.5-7.5-7.5s-7.5 3.357-7.5 7.5v15.128c0 4.142 3.358 7.5 7.5 7.5s7.5-3.358 7.5-7.5z"/><path d="m263.765 136.682c2.721-3.123 2.396-7.86-.727-10.582s-7.86-2.396-10.582.727c-7.982 9.161-22.198 9.187-30.204 0-2.722-3.123-7.459-3.447-10.582-.727-3.123 2.722-3.448 7.459-.727 10.582 13.98 16.038 38.859 16.02 52.822 0z"/><path d="m305.005 374.35c-12.754 0-24.851 5.028-33.834 13.758-8.751-8.505-20.679-13.758-33.816-13.758-13.138 0-25.066 5.252-33.817 13.758-8.983-8.73-21.08-13.758-33.834-13.758-26.776 0-48.56 21.784-48.56 48.56s21.784 48.561 48.56 48.561c12.754 0 24.851-5.028 33.834-13.758 8.751 8.505 20.679 13.758 33.816 13.758s25.066-5.253 33.816-13.758c8.983 8.73 21.08 13.758 33.834 13.758 26.776 0 48.56-21.784 48.56-48.561s-21.783-48.56-48.559-48.56zm-135.3 82.121c-18.505 0-33.56-15.055-33.56-33.561 0-18.505 15.055-33.56 33.56-33.56 9.456 0 18.399 3.993 24.715 10.867-3.544 6.679-5.625 14.603-5.625 22.693 0 8.044 2.068 15.997 5.625 22.693-6.316 6.875-15.26 10.868-24.715 10.868zm67.65 0c-18.493 0-33.56-15.048-33.56-33.561 0-18.505 15.088-33.56 33.56-33.56 18.489 0 33.56 15.046 33.56 33.56 0 18.486-15.057 33.561-33.56 33.561zm67.65 0c-9.456 0-18.399-3.993-24.715-10.867 3.646-6.865 5.625-14.841 5.625-22.693 0-7.854-1.967-15.798-5.625-22.693 6.316-6.874 15.259-10.867 24.715-10.867 18.505 0 33.56 15.055 33.56 33.56s-15.055 33.56-33.56 33.56z"/>
</g></g></svg>